<mxfile host="app.diagrams.net" modified="2022-04-29T14:18:23.646Z" agent="5.0 (Macintosh; Intel Mac OS X 10_15_7) AppleWebKit/537.36 (KHTML, like Gecko) Chrome/100.0.4896.127 Safari/537.36" etag="tNeJDxuf0SVTOsRMaDoV" version="17.4.5" type="github">
  <diagram id="4OQi59Qm8AY1YfnPW1HK" name="Page-1">
    <mxGraphModel dx="1351" dy="841" grid="1" gridSize="10" guides="1" tooltips="1" connect="1" arrows="1" fold="1" page="1" pageScale="1" pageWidth="850" pageHeight="1100" math="0" shadow="0">
      <root>
        <mxCell id="0" />
        <mxCell id="1" parent="0" />
        <mxCell id="Rd3qPR3GxqKm1jp_kwzv-121" value="" style="group;" parent="1" vertex="1" connectable="0">
          <mxGeometry x="2060" y="400" width="471.6300000000001" height="330" as="geometry" />
        </mxCell>
        <mxCell id="Rd3qPR3GxqKm1jp_kwzv-69" value="" style="whiteSpace=wrap;html=1;container=1;" parent="Rd3qPR3GxqKm1jp_kwzv-121" vertex="1">
          <mxGeometry x="81.63" y="100" width="390" height="160" as="geometry" />
        </mxCell>
        <mxCell id="Rd3qPR3GxqKm1jp_kwzv-71" value="Save" style="whiteSpace=wrap;html=1;strokeColor=default;fillColor=#B3B3B3;" parent="Rd3qPR3GxqKm1jp_kwzv-69" vertex="1">
          <mxGeometry x="276.62790697674404" y="125.71428571428571" width="36.279069767441854" height="22.857142857142854" as="geometry" />
        </mxCell>
        <mxCell id="Rd3qPR3GxqKm1jp_kwzv-72" value="Cancel" style="whiteSpace=wrap;html=1;strokeColor=default;fillColor=#B3B3B3;" parent="Rd3qPR3GxqKm1jp_kwzv-69" vertex="1">
          <mxGeometry x="326.5116279069766" y="125.71428571428571" width="45.34883720930232" height="22.857142857142854" as="geometry" />
        </mxCell>
        <mxCell id="Rd3qPR3GxqKm1jp_kwzv-80" value="&lt;font style=&quot;font-size: 15px&quot;&gt;Last&lt;/font&gt;" style="text;html=1;strokeColor=none;fillColor=none;align=center;verticalAlign=middle;whiteSpace=wrap;fontSize=15;" parent="Rd3qPR3GxqKm1jp_kwzv-69" vertex="1">
          <mxGeometry x="9.07000000000005" y="79.9985714285715" width="82.56" height="34.285714285714285" as="geometry" />
        </mxCell>
        <mxCell id="Rd3qPR3GxqKm1jp_kwzv-73" value="" style="whiteSpace=wrap;html=1;" parent="Rd3qPR3GxqKm1jp_kwzv-121" vertex="1">
          <mxGeometry x="81.63" y="100" width="389.99999999999983" height="30" as="geometry" />
        </mxCell>
        <mxCell id="Rd3qPR3GxqKm1jp_kwzv-74" value="&lt;span&gt;New / Edit Person&lt;br&gt;&lt;/span&gt;" style="whiteSpace=wrap;html=1;fillColor=#FFFFFF;strokeColor=none;align=left;" parent="Rd3qPR3GxqKm1jp_kwzv-121" vertex="1">
          <mxGeometry x="90.69976744186044" y="105" width="299.3023255813953" height="20" as="geometry" />
        </mxCell>
        <mxCell id="Rd3qPR3GxqKm1jp_kwzv-75" value="&lt;b&gt;X&lt;/b&gt;" style="whiteSpace=wrap;html=1;fillColor=#FFFFFF;" parent="Rd3qPR3GxqKm1jp_kwzv-121" vertex="1">
          <mxGeometry x="426.28116279069764" y="107.5" width="27.209302325581383" height="15" as="geometry" />
        </mxCell>
        <mxCell id="Rd3qPR3GxqKm1jp_kwzv-76" value="&lt;font style=&quot;font-size: 15px&quot;&gt;First&lt;/font&gt;" style="text;html=1;strokeColor=none;fillColor=none;align=center;verticalAlign=middle;whiteSpace=wrap;fontSize=15;" parent="Rd3qPR3GxqKm1jp_kwzv-121" vertex="1">
          <mxGeometry x="90.70000000000005" y="140" width="82.56" height="30" as="geometry" />
        </mxCell>
        <mxCell id="Rd3qPR3GxqKm1jp_kwzv-77" value="" style="whiteSpace=wrap;html=1;" parent="Rd3qPR3GxqKm1jp_kwzv-121" vertex="1">
          <mxGeometry x="185.93232558139528" y="140" width="267.55813953488365" height="30" as="geometry" />
        </mxCell>
        <mxCell id="Rd3qPR3GxqKm1jp_kwzv-78" value="&lt;font style=&quot;font-size: 14px&quot;&gt;Window will be used for both New and Edit. Either &quot;New&quot; or &quot;Edit&quot; will be shown depending on which action the window is used for. This window allows for the creation, updating, and of a person.&amp;nbsp;&lt;/font&gt;" style="shape=callout;whiteSpace=wrap;html=1;perimeter=calloutPerimeter;fontSize=15;" parent="Rd3qPR3GxqKm1jp_kwzv-121" vertex="1">
          <mxGeometry y="-60" width="320" height="160" as="geometry" />
        </mxCell>
        <mxCell id="Rd3qPR3GxqKm1jp_kwzv-81" value="" style="whiteSpace=wrap;html=1;" parent="Rd3qPR3GxqKm1jp_kwzv-121" vertex="1">
          <mxGeometry x="185.93232558139528" y="180" width="267.55813953488365" height="30" as="geometry" />
        </mxCell>
        <mxCell id="Rd3qPR3GxqKm1jp_kwzv-124" value="" style="group;" parent="1" vertex="1" connectable="0">
          <mxGeometry x="10" y="490" width="471.63" height="320" as="geometry" />
        </mxCell>
        <mxCell id="Rd3qPR3GxqKm1jp_kwzv-54" value="" style="whiteSpace=wrap;html=1;container=1;" parent="Rd3qPR3GxqKm1jp_kwzv-124" vertex="1">
          <mxGeometry x="81.63" y="100" width="390" height="140" as="geometry" />
        </mxCell>
        <mxCell id="Rd3qPR3GxqKm1jp_kwzv-65" value="Save" style="whiteSpace=wrap;html=1;strokeColor=default;fillColor=#B3B3B3;" parent="Rd3qPR3GxqKm1jp_kwzv-54" vertex="1">
          <mxGeometry x="276.62790697674404" y="110" width="36.279069767441854" height="20" as="geometry" />
        </mxCell>
        <mxCell id="Rd3qPR3GxqKm1jp_kwzv-64" value="Cancel" style="whiteSpace=wrap;html=1;strokeColor=default;fillColor=#B3B3B3;" parent="Rd3qPR3GxqKm1jp_kwzv-54" vertex="1">
          <mxGeometry x="326.5116279069766" y="110" width="45.34883720930232" height="20" as="geometry" />
        </mxCell>
        <mxCell id="Rd3qPR3GxqKm1jp_kwzv-55" value="" style="whiteSpace=wrap;html=1;" parent="Rd3qPR3GxqKm1jp_kwzv-124" vertex="1">
          <mxGeometry x="81.63" y="100" width="389.99999999999983" height="30" as="geometry" />
        </mxCell>
        <mxCell id="Rd3qPR3GxqKm1jp_kwzv-56" value="&lt;span&gt;New / Edit Role&lt;br&gt;&lt;/span&gt;" style="whiteSpace=wrap;html=1;fillColor=#FFFFFF;strokeColor=none;align=left;" parent="Rd3qPR3GxqKm1jp_kwzv-124" vertex="1">
          <mxGeometry x="90.69976744186044" y="105" width="299.3023255813953" height="20" as="geometry" />
        </mxCell>
        <mxCell id="Rd3qPR3GxqKm1jp_kwzv-57" value="&lt;b&gt;X&lt;/b&gt;" style="whiteSpace=wrap;html=1;fillColor=#FFFFFF;" parent="Rd3qPR3GxqKm1jp_kwzv-124" vertex="1">
          <mxGeometry x="426.2811627906975" y="107.5" width="27.209302325581383" height="15" as="geometry" />
        </mxCell>
        <mxCell id="Rd3qPR3GxqKm1jp_kwzv-58" value="&lt;font style=&quot;font-size: 15px&quot;&gt;Role Name&lt;/font&gt;" style="text;html=1;strokeColor=none;fillColor=none;align=center;verticalAlign=middle;whiteSpace=wrap;fontSize=15;" parent="Rd3qPR3GxqKm1jp_kwzv-124" vertex="1">
          <mxGeometry x="90.70000000000005" y="140" width="82.56" height="30" as="geometry" />
        </mxCell>
        <mxCell id="Rd3qPR3GxqKm1jp_kwzv-59" value="" style="whiteSpace=wrap;html=1;" parent="Rd3qPR3GxqKm1jp_kwzv-124" vertex="1">
          <mxGeometry x="185.93232558139528" y="140" width="267.55813953488365" height="30" as="geometry" />
        </mxCell>
        <mxCell id="Rd3qPR3GxqKm1jp_kwzv-67" value="&lt;font style=&quot;font-size: 14px&quot;&gt;Window will be used for both New and Edit. Either &quot;New&quot; or &quot;Edit&quot; will be shown depending on which action the window is used for. Window is both the new role and the edit role screen.&lt;/font&gt;" style="shape=callout;whiteSpace=wrap;html=1;perimeter=calloutPerimeter;fontSize=15;" parent="Rd3qPR3GxqKm1jp_kwzv-124" vertex="1">
          <mxGeometry y="-30" width="320" height="130" as="geometry" />
        </mxCell>
        <mxCell id="Rd3qPR3GxqKm1jp_kwzv-141" value="" style="group;" parent="1" vertex="1" connectable="0">
          <mxGeometry x="1101.63" y="270" width="535" height="494" as="geometry" />
        </mxCell>
        <mxCell id="vdjSKUOgppkRG0CxjOew-1" value="" style="whiteSpace=wrap;html=1;" parent="Rd3qPR3GxqKm1jp_kwzv-141" vertex="1">
          <mxGeometry y="210" width="530" height="284" as="geometry" />
        </mxCell>
        <mxCell id="E74i4Yss6tRuVbI0QfsG-2" value="" style="whiteSpace=wrap;html=1;" parent="Rd3qPR3GxqKm1jp_kwzv-141" vertex="1">
          <mxGeometry y="210" width="530" height="30" as="geometry" />
        </mxCell>
        <mxCell id="E74i4Yss6tRuVbI0QfsG-7" value="&lt;span&gt;Streamlined Service&lt;/span&gt;" style="whiteSpace=wrap;html=1;fillColor=#FFFFFF;strokeColor=none;" parent="Rd3qPR3GxqKm1jp_kwzv-141" vertex="1">
          <mxGeometry x="7.20558139534883" y="214.08153846153846" width="135.58139534883722" height="21.846153846153854" as="geometry" />
        </mxCell>
        <mxCell id="E74i4Yss6tRuVbI0QfsG-8" value="&lt;b&gt;X&lt;/b&gt;" style="whiteSpace=wrap;html=1;fillColor=#FFFFFF;" parent="Rd3qPR3GxqKm1jp_kwzv-141" vertex="1">
          <mxGeometry x="468.37209302325573" y="218.19230769230768" width="36.97674418604651" height="16.384615384615394" as="geometry" />
        </mxCell>
        <mxCell id="E74i4Yss6tRuVbI0QfsG-9" value="" style="whiteSpace=wrap;html=1;fillColor=#FFFFFF;imageAspect=1;" parent="Rd3qPR3GxqKm1jp_kwzv-141" vertex="1">
          <mxGeometry x="150" y="270" width="370" height="210" as="geometry" />
        </mxCell>
        <mxCell id="E74i4Yss6tRuVbI0QfsG-20" value="" style="group;strokeColor=none;" parent="Rd3qPR3GxqKm1jp_kwzv-141" vertex="1" connectable="0">
          <mxGeometry x="10" y="270" width="130" height="210" as="geometry" />
        </mxCell>
        <mxCell id="E74i4Yss6tRuVbI0QfsG-18" value="" style="group;" parent="E74i4Yss6tRuVbI0QfsG-20" vertex="1" connectable="0">
          <mxGeometry width="130" height="210.00000000000003" as="geometry" />
        </mxCell>
        <mxCell id="E74i4Yss6tRuVbI0QfsG-14" value="" style="whiteSpace=wrap;html=1;fillColor=#FFFFFF;" parent="E74i4Yss6tRuVbI0QfsG-18" vertex="1">
          <mxGeometry width="130" height="210.00000000000003" as="geometry" />
        </mxCell>
        <mxCell id="E74i4Yss6tRuVbI0QfsG-15" value="" style="whiteSpace=wrap;html=1;fillColor=#f5f5f5;fontColor=#333333;strokeColor=#666666;" parent="E74i4Yss6tRuVbI0QfsG-18" vertex="1">
          <mxGeometry x="119.16666666666666" width="10.833333333333332" height="210.00000000000003" as="geometry" />
        </mxCell>
        <mxCell id="E74i4Yss6tRuVbI0QfsG-23" value="Service Name - Date" style="whiteSpace=wrap;html=1;align=left;strokeColor=none;" parent="E74i4Yss6tRuVbI0QfsG-18" vertex="1">
          <mxGeometry x="2" y="66.31578947368422" width="116" height="22.10526315789474" as="geometry" />
        </mxCell>
        <mxCell id="E74i4Yss6tRuVbI0QfsG-22" value="Service Name - Date" style="whiteSpace=wrap;html=1;align=left;strokeColor=none;" parent="E74i4Yss6tRuVbI0QfsG-18" vertex="1">
          <mxGeometry x="2" y="44.21052631578948" width="116" height="22.10526315789474" as="geometry" />
        </mxCell>
        <mxCell id="E74i4Yss6tRuVbI0QfsG-21" value="Service Name - Date" style="whiteSpace=wrap;html=1;align=left;strokeColor=none;" parent="E74i4Yss6tRuVbI0QfsG-18" vertex="1">
          <mxGeometry x="2" y="22.10526315789474" width="116" height="22.10526315789474" as="geometry" />
        </mxCell>
        <mxCell id="E74i4Yss6tRuVbI0QfsG-16" value="" style="whiteSpace=wrap;html=1;fillColor=#B3B3B3;" parent="E74i4Yss6tRuVbI0QfsG-18" vertex="1">
          <mxGeometry x="120" width="10" height="44.21052631578948" as="geometry" />
        </mxCell>
        <mxCell id="E74i4Yss6tRuVbI0QfsG-17" value="Service Name - Date" style="whiteSpace=wrap;html=1;align=left;strokeColor=none;" parent="E74i4Yss6tRuVbI0QfsG-20" vertex="1">
          <mxGeometry x="2" y="2.210526315789474" width="116" height="22.10526315789474" as="geometry" />
        </mxCell>
        <mxCell id="E74i4Yss6tRuVbI0QfsG-27" value="New Service" style="whiteSpace=wrap;html=1;strokeColor=default;fillColor=#B3B3B3;" parent="Rd3qPR3GxqKm1jp_kwzv-141" vertex="1">
          <mxGeometry x="10" y="244" width="80" height="20" as="geometry" />
        </mxCell>
        <mxCell id="Rd3qPR3GxqKm1jp_kwzv-98" value="Service Name – &lt;font style=&quot;font-size: 12px&quot;&gt;Date&lt;/font&gt;" style="text;html=1;strokeColor=none;fillColor=none;align=left;verticalAlign=middle;whiteSpace=wrap;fontSize=15;" parent="Rd3qPR3GxqKm1jp_kwzv-141" vertex="1">
          <mxGeometry x="160" y="270" width="140" height="30" as="geometry" />
        </mxCell>
        <mxCell id="Rd3qPR3GxqKm1jp_kwzv-101" value="Description of Service" style="text;html=1;strokeColor=none;fillColor=none;align=left;verticalAlign=middle;whiteSpace=wrap;fontSize=11;" parent="Rd3qPR3GxqKm1jp_kwzv-141" vertex="1">
          <mxGeometry x="160" y="290" width="331" height="25" as="geometry" />
        </mxCell>
        <mxCell id="Rd3qPR3GxqKm1jp_kwzv-112" value="Add&amp;nbsp;Participant" style="whiteSpace=wrap;html=1;strokeColor=default;fillColor=#B3B3B3;" parent="Rd3qPR3GxqKm1jp_kwzv-141" vertex="1">
          <mxGeometry x="175" y="450" width="94.42" height="20" as="geometry" />
        </mxCell>
        <mxCell id="Rd3qPR3GxqKm1jp_kwzv-114" value="Remove Participant" style="whiteSpace=wrap;html=1;strokeColor=default;fillColor=#B3B3B3;" parent="Rd3qPR3GxqKm1jp_kwzv-141" vertex="1">
          <mxGeometry x="380" y="450" width="120" height="20" as="geometry" />
        </mxCell>
        <mxCell id="Rd3qPR3GxqKm1jp_kwzv-113" value="Edit Participant" style="whiteSpace=wrap;html=1;strokeColor=default;fillColor=#B3B3B3;" parent="Rd3qPR3GxqKm1jp_kwzv-141" vertex="1">
          <mxGeometry x="280" y="450" width="90" height="20" as="geometry" />
        </mxCell>
        <mxCell id="Rd3qPR3GxqKm1jp_kwzv-133" value="&lt;font style=&quot;font-size: 14px&quot;&gt;This is the main window that shows each service and the details for the service. Clicking on a service shows the details in the right hand pane. Clicking on any buttons either performs the action (such as delete or quit the app) or opens an external screen .&lt;/font&gt;" style="shape=callout;whiteSpace=wrap;html=1;perimeter=calloutPerimeter;fontSize=12;" parent="Rd3qPR3GxqKm1jp_kwzv-141" vertex="1">
          <mxGeometry x="220" width="315" height="194.08" as="geometry" />
        </mxCell>
        <mxCell id="E74i4Yss6tRuVbI0QfsG-31" value="Quit" style="whiteSpace=wrap;html=1;strokeColor=default;fillColor=#B3B3B3;" parent="Rd3qPR3GxqKm1jp_kwzv-141" vertex="1">
          <mxGeometry x="468.3699999999999" y="244" width="40" height="20" as="geometry" />
        </mxCell>
        <mxCell id="E74i4Yss6tRuVbI0QfsG-30" value="View People" style="whiteSpace=wrap;html=1;strokeColor=default;fillColor=#B3B3B3;" parent="Rd3qPR3GxqKm1jp_kwzv-141" vertex="1">
          <mxGeometry x="380" y="244" width="80" height="20" as="geometry" />
        </mxCell>
        <mxCell id="E74i4Yss6tRuVbI0QfsG-29" value="View Roles" style="whiteSpace=wrap;html=1;strokeColor=default;fillColor=#B3B3B3;" parent="Rd3qPR3GxqKm1jp_kwzv-141" vertex="1">
          <mxGeometry x="290" y="244" width="80" height="20" as="geometry" />
        </mxCell>
        <mxCell id="Rd3qPR3GxqKm1jp_kwzv-153" value="Edit Service" style="whiteSpace=wrap;html=1;strokeColor=default;fillColor=#B3B3B3;" parent="Rd3qPR3GxqKm1jp_kwzv-141" vertex="1">
          <mxGeometry x="200" y="244" width="80" height="20" as="geometry" />
        </mxCell>
        <mxCell id="Rd3qPR3GxqKm1jp_kwzv-142" value="" style="group;" parent="1" vertex="1" connectable="0">
          <mxGeometry x="780" y="20" width="490" height="300" as="geometry" />
        </mxCell>
        <mxCell id="Rd3qPR3GxqKm1jp_kwzv-51" value="" style="group;" parent="Rd3qPR3GxqKm1jp_kwzv-142" vertex="1" connectable="0">
          <mxGeometry x="60" y="100" width="430" height="200" as="geometry" />
        </mxCell>
        <mxCell id="E74i4Yss6tRuVbI0QfsG-34" value="" style="whiteSpace=wrap;html=1;container=1;" parent="Rd3qPR3GxqKm1jp_kwzv-51" vertex="1">
          <mxGeometry width="430" height="200" as="geometry" />
        </mxCell>
        <mxCell id="E74i4Yss6tRuVbI0QfsG-35" value="" style="whiteSpace=wrap;html=1;" parent="Rd3qPR3GxqKm1jp_kwzv-51" vertex="1">
          <mxGeometry width="430" height="30" as="geometry" />
        </mxCell>
        <mxCell id="E74i4Yss6tRuVbI0QfsG-36" value="&lt;span&gt;New / Edit Service&lt;br&gt;&lt;/span&gt;" style="whiteSpace=wrap;html=1;fillColor=#FFFFFF;strokeColor=none;align=left;" parent="Rd3qPR3GxqKm1jp_kwzv-51" vertex="1">
          <mxGeometry x="10" y="5" width="330" height="20" as="geometry" />
        </mxCell>
        <mxCell id="E74i4Yss6tRuVbI0QfsG-37" value="&lt;b&gt;X&lt;/b&gt;" style="whiteSpace=wrap;html=1;fillColor=#FFFFFF;" parent="Rd3qPR3GxqKm1jp_kwzv-51" vertex="1">
          <mxGeometry x="380" y="7.5" width="30" height="15" as="geometry" />
        </mxCell>
        <mxCell id="Rd3qPR3GxqKm1jp_kwzv-2" value="Name" style="text;html=1;strokeColor=none;fillColor=none;align=center;verticalAlign=middle;whiteSpace=wrap;fontSize=15;" parent="Rd3qPR3GxqKm1jp_kwzv-51" vertex="1">
          <mxGeometry x="20" y="40" width="60" height="30" as="geometry" />
        </mxCell>
        <mxCell id="Rd3qPR3GxqKm1jp_kwzv-3" value="" style="whiteSpace=wrap;html=1;" parent="Rd3qPR3GxqKm1jp_kwzv-51" vertex="1">
          <mxGeometry x="115" y="40" width="295" height="30" as="geometry" />
        </mxCell>
        <mxCell id="Rd3qPR3GxqKm1jp_kwzv-4" value="Date" style="text;html=1;strokeColor=none;fillColor=none;align=center;verticalAlign=middle;whiteSpace=wrap;fontSize=15;" parent="Rd3qPR3GxqKm1jp_kwzv-51" vertex="1">
          <mxGeometry x="20" y="80" width="60" height="30" as="geometry" />
        </mxCell>
        <mxCell id="Rd3qPR3GxqKm1jp_kwzv-5" value="" style="whiteSpace=wrap;html=1;" parent="Rd3qPR3GxqKm1jp_kwzv-51" vertex="1">
          <mxGeometry x="115" y="80" width="295" height="30" as="geometry" />
        </mxCell>
        <mxCell id="Rd3qPR3GxqKm1jp_kwzv-6" value="Description" style="text;html=1;strokeColor=none;fillColor=none;align=center;verticalAlign=middle;whiteSpace=wrap;fontSize=15;" parent="Rd3qPR3GxqKm1jp_kwzv-51" vertex="1">
          <mxGeometry x="20" y="120" width="60" height="30" as="geometry" />
        </mxCell>
        <mxCell id="Rd3qPR3GxqKm1jp_kwzv-7" value="" style="whiteSpace=wrap;html=1;" parent="Rd3qPR3GxqKm1jp_kwzv-51" vertex="1">
          <mxGeometry x="115" y="120" width="295" height="30" as="geometry" />
        </mxCell>
        <mxCell id="Rd3qPR3GxqKm1jp_kwzv-10" value="Cancel" style="whiteSpace=wrap;html=1;strokeColor=default;fillColor=#B3B3B3;" parent="Rd3qPR3GxqKm1jp_kwzv-51" vertex="1">
          <mxGeometry x="360" y="170" width="50" height="20" as="geometry" />
        </mxCell>
        <mxCell id="Rd3qPR3GxqKm1jp_kwzv-13" value="Save" style="whiteSpace=wrap;html=1;strokeColor=default;fillColor=#B3B3B3;" parent="Rd3qPR3GxqKm1jp_kwzv-51" vertex="1">
          <mxGeometry x="305" y="170" width="40" height="20" as="geometry" />
        </mxCell>
        <mxCell id="Rd3qPR3GxqKm1jp_kwzv-52" value="&lt;font style=&quot;font-size: 14px&quot;&gt;Window will be used for both New and Edit. Either &quot;New&quot; or &quot;Edit&quot; will be shown depending on which action the window is used for. This window is used both to create and edit a service.&lt;/font&gt;" style="shape=callout;whiteSpace=wrap;html=1;perimeter=calloutPerimeter;fontSize=15;spacingRight=4;spacingLeft=4;spacingTop=0;spacing=4;" parent="Rd3qPR3GxqKm1jp_kwzv-142" vertex="1">
          <mxGeometry width="370" height="110" as="geometry" />
        </mxCell>
        <mxCell id="Rd3qPR3GxqKm1jp_kwzv-143" value="" style="group;" parent="1" vertex="1" connectable="0">
          <mxGeometry x="610" y="460" width="390" height="401" as="geometry" />
        </mxCell>
        <mxCell id="E74i4Yss6tRuVbI0QfsG-38" value="" style="group;" parent="Rd3qPR3GxqKm1jp_kwzv-143" vertex="1" connectable="0">
          <mxGeometry y="141" width="220" height="260" as="geometry" />
        </mxCell>
        <mxCell id="E74i4Yss6tRuVbI0QfsG-39" value="" style="whiteSpace=wrap;html=1;" parent="E74i4Yss6tRuVbI0QfsG-38" vertex="1">
          <mxGeometry width="220" height="260" as="geometry" />
        </mxCell>
        <mxCell id="E74i4Yss6tRuVbI0QfsG-40" value="" style="whiteSpace=wrap;html=1;" parent="E74i4Yss6tRuVbI0QfsG-38" vertex="1">
          <mxGeometry width="220" height="30" as="geometry" />
        </mxCell>
        <mxCell id="E74i4Yss6tRuVbI0QfsG-41" value="&lt;span&gt;Role&lt;/span&gt;" style="whiteSpace=wrap;html=1;fillColor=#FFFFFF;strokeColor=none;align=left;" parent="E74i4Yss6tRuVbI0QfsG-38" vertex="1">
          <mxGeometry x="5.12" y="5" width="154.88" height="20" as="geometry" />
        </mxCell>
        <mxCell id="E74i4Yss6tRuVbI0QfsG-42" value="&lt;b&gt;X&lt;/b&gt;" style="whiteSpace=wrap;html=1;fillColor=#FFFFFF;" parent="E74i4Yss6tRuVbI0QfsG-38" vertex="1">
          <mxGeometry x="190" y="7.5" width="19.77" height="15" as="geometry" />
        </mxCell>
        <mxCell id="Rd3qPR3GxqKm1jp_kwzv-14" value="" style="group;strokeColor=none;" parent="E74i4Yss6tRuVbI0QfsG-38" vertex="1" connectable="0">
          <mxGeometry x="5" y="40" width="207" height="190" as="geometry" />
        </mxCell>
        <mxCell id="Rd3qPR3GxqKm1jp_kwzv-15" value="" style="group;" parent="Rd3qPR3GxqKm1jp_kwzv-14" vertex="1" connectable="0">
          <mxGeometry width="206.99999999999997" height="190.00000000000003" as="geometry" />
        </mxCell>
        <mxCell id="Rd3qPR3GxqKm1jp_kwzv-16" value="" style="whiteSpace=wrap;html=1;fillColor=#FFFFFF;" parent="Rd3qPR3GxqKm1jp_kwzv-15" vertex="1">
          <mxGeometry width="206.99999999999997" height="190.00000000000003" as="geometry" />
        </mxCell>
        <mxCell id="Rd3qPR3GxqKm1jp_kwzv-17" value="" style="whiteSpace=wrap;html=1;fillColor=#f5f5f5;fontColor=#333333;strokeColor=#666666;" parent="Rd3qPR3GxqKm1jp_kwzv-15" vertex="1">
          <mxGeometry x="196.22659090909085" width="10.114772727272726" height="190" as="geometry" />
        </mxCell>
        <mxCell id="Rd3qPR3GxqKm1jp_kwzv-18" value="Role Name" style="whiteSpace=wrap;html=1;align=left;strokeColor=none;" parent="Rd3qPR3GxqKm1jp_kwzv-15" vertex="1">
          <mxGeometry x="3.184615384615384" y="60.00000000000001" width="184.7076923076923" height="20.000000000000004" as="geometry" />
        </mxCell>
        <mxCell id="Rd3qPR3GxqKm1jp_kwzv-19" value="Role Name" style="whiteSpace=wrap;html=1;align=left;strokeColor=none;" parent="Rd3qPR3GxqKm1jp_kwzv-15" vertex="1">
          <mxGeometry x="3.184615384615384" y="40.00000000000001" width="184.7076923076923" height="20.000000000000004" as="geometry" />
        </mxCell>
        <mxCell id="Rd3qPR3GxqKm1jp_kwzv-20" value="Role Name" style="whiteSpace=wrap;html=1;align=left;strokeColor=none;" parent="Rd3qPR3GxqKm1jp_kwzv-15" vertex="1">
          <mxGeometry x="3.184615384615384" y="20.000000000000004" width="184.7076923076923" height="20.000000000000004" as="geometry" />
        </mxCell>
        <mxCell id="Rd3qPR3GxqKm1jp_kwzv-21" value="" style="whiteSpace=wrap;html=1;fillColor=#B3B3B3;" parent="Rd3qPR3GxqKm1jp_kwzv-15" vertex="1">
          <mxGeometry x="196.22659090909085" width="10.114772727272726" height="40" as="geometry" />
        </mxCell>
        <mxCell id="Rd3qPR3GxqKm1jp_kwzv-22" value="Role Name" style="whiteSpace=wrap;html=1;align=left;strokeColor=none;" parent="Rd3qPR3GxqKm1jp_kwzv-14" vertex="1">
          <mxGeometry x="3.1846153846153844" y="2" width="184.70769230769233" height="20.000000000000004" as="geometry" />
        </mxCell>
        <mxCell id="Rd3qPR3GxqKm1jp_kwzv-23" value="Cancel" style="whiteSpace=wrap;html=1;strokeColor=default;fillColor=#B3B3B3;flipH=1;" parent="E74i4Yss6tRuVbI0QfsG-38" vertex="1">
          <mxGeometry x="165" y="236" width="47" height="20" as="geometry" />
        </mxCell>
        <mxCell id="Rd3qPR3GxqKm1jp_kwzv-24" value="Delete" style="whiteSpace=wrap;html=1;strokeColor=default;fillColor=#B3B3B3;flipH=1;" parent="E74i4Yss6tRuVbI0QfsG-38" vertex="1">
          <mxGeometry x="113" y="236" width="47" height="20" as="geometry" />
        </mxCell>
        <mxCell id="Rd3qPR3GxqKm1jp_kwzv-25" value="Edit" style="whiteSpace=wrap;html=1;strokeColor=default;fillColor=#B3B3B3;flipH=1;" parent="E74i4Yss6tRuVbI0QfsG-38" vertex="1">
          <mxGeometry x="59.06" y="236" width="47" height="20" as="geometry" />
        </mxCell>
        <mxCell id="Rd3qPR3GxqKm1jp_kwzv-26" value="New" style="whiteSpace=wrap;html=1;strokeColor=default;fillColor=#B3B3B3;flipH=1;" parent="E74i4Yss6tRuVbI0QfsG-38" vertex="1">
          <mxGeometry x="5.12" y="236" width="47" height="20" as="geometry" />
        </mxCell>
        <mxCell id="Rd3qPR3GxqKm1jp_kwzv-136" value="This screen will show the list of roles the user has created and allow the user to create, update, and delete them as needed. The edit and delete buttons will apply to the currently selected role. The cancel button closes the window." style="shape=callout;whiteSpace=wrap;html=1;perimeter=calloutPerimeter;fontSize=14;size=20;position=0.15;position2=0.09;base=31;" parent="Rd3qPR3GxqKm1jp_kwzv-143" vertex="1">
          <mxGeometry x="60" width="330" height="120" as="geometry" />
        </mxCell>
        <mxCell id="Rd3qPR3GxqKm1jp_kwzv-144" value="" style="group;" parent="1" vertex="1" connectable="0">
          <mxGeometry x="1710" y="450" width="330" height="380" as="geometry" />
        </mxCell>
        <mxCell id="Rd3qPR3GxqKm1jp_kwzv-28" value="" style="group;" parent="Rd3qPR3GxqKm1jp_kwzv-144" vertex="1" connectable="0">
          <mxGeometry x="70" y="120" width="220" height="260" as="geometry" />
        </mxCell>
        <mxCell id="Rd3qPR3GxqKm1jp_kwzv-29" value="" style="whiteSpace=wrap;html=1;" parent="Rd3qPR3GxqKm1jp_kwzv-28" vertex="1">
          <mxGeometry width="220" height="260" as="geometry" />
        </mxCell>
        <mxCell id="Rd3qPR3GxqKm1jp_kwzv-30" value="" style="whiteSpace=wrap;html=1;" parent="Rd3qPR3GxqKm1jp_kwzv-28" vertex="1">
          <mxGeometry width="220" height="30" as="geometry" />
        </mxCell>
        <mxCell id="Rd3qPR3GxqKm1jp_kwzv-31" value="&lt;span&gt;People&lt;/span&gt;" style="whiteSpace=wrap;html=1;fillColor=#FFFFFF;strokeColor=none;align=left;" parent="Rd3qPR3GxqKm1jp_kwzv-28" vertex="1">
          <mxGeometry x="5.12" y="5" width="154.88" height="20" as="geometry" />
        </mxCell>
        <mxCell id="Rd3qPR3GxqKm1jp_kwzv-32" value="&lt;b&gt;X&lt;/b&gt;" style="whiteSpace=wrap;html=1;fillColor=#FFFFFF;" parent="Rd3qPR3GxqKm1jp_kwzv-28" vertex="1">
          <mxGeometry x="190" y="7.5" width="19.77" height="15" as="geometry" />
        </mxCell>
        <mxCell id="Rd3qPR3GxqKm1jp_kwzv-33" value="" style="group;strokeColor=none;" parent="Rd3qPR3GxqKm1jp_kwzv-28" vertex="1" connectable="0">
          <mxGeometry x="5" y="40" width="207" height="190" as="geometry" />
        </mxCell>
        <mxCell id="Rd3qPR3GxqKm1jp_kwzv-34" value="" style="group;" parent="Rd3qPR3GxqKm1jp_kwzv-33" vertex="1" connectable="0">
          <mxGeometry width="206.99999999999997" height="190.00000000000003" as="geometry" />
        </mxCell>
        <mxCell id="Rd3qPR3GxqKm1jp_kwzv-35" value="" style="whiteSpace=wrap;html=1;fillColor=#FFFFFF;" parent="Rd3qPR3GxqKm1jp_kwzv-34" vertex="1">
          <mxGeometry width="206.99999999999997" height="190.00000000000003" as="geometry" />
        </mxCell>
        <mxCell id="Rd3qPR3GxqKm1jp_kwzv-36" value="" style="whiteSpace=wrap;html=1;fillColor=#f5f5f5;fontColor=#333333;strokeColor=#666666;" parent="Rd3qPR3GxqKm1jp_kwzv-34" vertex="1">
          <mxGeometry x="196.22659090909085" width="10.114772727272726" height="190" as="geometry" />
        </mxCell>
        <mxCell id="Rd3qPR3GxqKm1jp_kwzv-37" value="LastName, FirstName" style="whiteSpace=wrap;html=1;align=left;strokeColor=none;" parent="Rd3qPR3GxqKm1jp_kwzv-34" vertex="1">
          <mxGeometry x="3.184615384615384" y="60.00000000000001" width="184.7076923076923" height="20.000000000000004" as="geometry" />
        </mxCell>
        <mxCell id="Rd3qPR3GxqKm1jp_kwzv-38" value="LastName, FirstName" style="whiteSpace=wrap;html=1;align=left;strokeColor=none;" parent="Rd3qPR3GxqKm1jp_kwzv-34" vertex="1">
          <mxGeometry x="3.18" y="40" width="184.71" height="20" as="geometry" />
        </mxCell>
        <mxCell id="Rd3qPR3GxqKm1jp_kwzv-39" value="LastName, FirstName" style="whiteSpace=wrap;html=1;align=left;strokeColor=none;" parent="Rd3qPR3GxqKm1jp_kwzv-34" vertex="1">
          <mxGeometry x="3.184615384615384" y="20.000000000000004" width="184.7076923076923" height="20.000000000000004" as="geometry" />
        </mxCell>
        <mxCell id="Rd3qPR3GxqKm1jp_kwzv-40" value="" style="whiteSpace=wrap;html=1;fillColor=#B3B3B3;" parent="Rd3qPR3GxqKm1jp_kwzv-34" vertex="1">
          <mxGeometry x="196.22659090909085" width="10.114772727272726" height="40" as="geometry" />
        </mxCell>
        <mxCell id="Rd3qPR3GxqKm1jp_kwzv-41" value="LastName, FirstName" style="whiteSpace=wrap;html=1;align=left;strokeColor=none;" parent="Rd3qPR3GxqKm1jp_kwzv-33" vertex="1">
          <mxGeometry x="3.1846153846153844" y="2" width="184.70769230769233" height="20.000000000000004" as="geometry" />
        </mxCell>
        <mxCell id="Rd3qPR3GxqKm1jp_kwzv-42" value="Cancel" style="whiteSpace=wrap;html=1;strokeColor=default;fillColor=#B3B3B3;flipH=1;" parent="Rd3qPR3GxqKm1jp_kwzv-28" vertex="1">
          <mxGeometry x="165" y="236" width="47" height="20" as="geometry" />
        </mxCell>
        <mxCell id="Rd3qPR3GxqKm1jp_kwzv-43" value="Delete" style="whiteSpace=wrap;html=1;strokeColor=default;fillColor=#B3B3B3;flipH=1;" parent="Rd3qPR3GxqKm1jp_kwzv-28" vertex="1">
          <mxGeometry x="113" y="236" width="47" height="20" as="geometry" />
        </mxCell>
        <mxCell id="Rd3qPR3GxqKm1jp_kwzv-44" value="Edit" style="whiteSpace=wrap;html=1;strokeColor=default;fillColor=#B3B3B3;flipH=1;" parent="Rd3qPR3GxqKm1jp_kwzv-28" vertex="1">
          <mxGeometry x="59.06" y="236" width="47" height="20" as="geometry" />
        </mxCell>
        <mxCell id="Rd3qPR3GxqKm1jp_kwzv-45" value="New" style="whiteSpace=wrap;html=1;strokeColor=default;fillColor=#B3B3B3;flipH=1;" parent="Rd3qPR3GxqKm1jp_kwzv-28" vertex="1">
          <mxGeometry x="5.12" y="236" width="47" height="20" as="geometry" />
        </mxCell>
        <mxCell id="Rd3qPR3GxqKm1jp_kwzv-135" value="This screen will show the list of people the user has created and allow the user to create, update, and delete them as needed. The edit and delete buttons will apply to the currently selected person. The cancel button closes the window." style="shape=callout;whiteSpace=wrap;html=1;perimeter=calloutPerimeter;fontSize=14;" parent="Rd3qPR3GxqKm1jp_kwzv-144" vertex="1">
          <mxGeometry width="330" height="120" as="geometry" />
        </mxCell>
        <mxCell id="E74i4Yss6tRuVbI0QfsG-28" value="Delete Service" style="whiteSpace=wrap;html=1;strokeColor=default;fillColor=#B3B3B3;" parent="1" vertex="1">
          <mxGeometry x="1201.63" y="514" width="90" height="20" as="geometry" />
        </mxCell>
        <mxCell id="Rd3qPR3GxqKm1jp_kwzv-102" value="" style="group;strokeColor=none;" parent="1" vertex="1" connectable="0">
          <mxGeometry x="1261.63" y="585" width="340" height="130" as="geometry" />
        </mxCell>
        <mxCell id="Rd3qPR3GxqKm1jp_kwzv-103" value="" style="group;" parent="Rd3qPR3GxqKm1jp_kwzv-102" vertex="1" connectable="0">
          <mxGeometry width="340" height="130.00000000000003" as="geometry" />
        </mxCell>
        <mxCell id="Rd3qPR3GxqKm1jp_kwzv-104" value="" style="whiteSpace=wrap;html=1;fillColor=#FFFFFF;" parent="Rd3qPR3GxqKm1jp_kwzv-103" vertex="1">
          <mxGeometry width="340" height="130.00000000000003" as="geometry" />
        </mxCell>
        <mxCell id="Rd3qPR3GxqKm1jp_kwzv-105" value="" style="whiteSpace=wrap;html=1;fillColor=#f5f5f5;fontColor=#333333;strokeColor=#666666;" parent="Rd3qPR3GxqKm1jp_kwzv-103" vertex="1">
          <mxGeometry x="329.9966666666666" width="10" height="130.00000000000003" as="geometry" />
        </mxCell>
        <mxCell id="Rd3qPR3GxqKm1jp_kwzv-107" value="LastName, FirstName – Role" style="whiteSpace=wrap;html=1;align=left;strokeColor=none;" parent="Rd3qPR3GxqKm1jp_kwzv-103" vertex="1">
          <mxGeometry x="5.230769230769231" y="33.998421052631585" width="303.3846153846154" height="16" as="geometry" />
        </mxCell>
        <mxCell id="Rd3qPR3GxqKm1jp_kwzv-108" value="LastName, FirstName – Role" style="whiteSpace=wrap;html=1;align=left;strokeColor=none;" parent="Rd3qPR3GxqKm1jp_kwzv-103" vertex="1">
          <mxGeometry x="5.230769230769231" y="17.994210526315793" width="303.3846153846154" height="16" as="geometry" />
        </mxCell>
        <mxCell id="Rd3qPR3GxqKm1jp_kwzv-109" value="" style="whiteSpace=wrap;html=1;fillColor=#B3B3B3;" parent="Rd3qPR3GxqKm1jp_kwzv-103" vertex="1">
          <mxGeometry x="329.99615384615385" width="10" height="27.368421052631586" as="geometry" />
        </mxCell>
        <mxCell id="Rd3qPR3GxqKm1jp_kwzv-106" value="LastName, FirstName – Role" style="whiteSpace=wrap;html=1;align=left;strokeColor=none;" parent="Rd3qPR3GxqKm1jp_kwzv-103" vertex="1">
          <mxGeometry x="5.230769230769226" y="50.00263157894736" width="303.3846153846154" height="16" as="geometry" />
        </mxCell>
        <mxCell id="Rd3qPR3GxqKm1jp_kwzv-110" value="LastName, FirstName – Role" style="whiteSpace=wrap;html=1;align=left;strokeColor=none;" parent="Rd3qPR3GxqKm1jp_kwzv-103" vertex="1">
          <mxGeometry x="5.230769230769226" y="1.9984210526315849" width="303.3846153846154" height="16" as="geometry" />
        </mxCell>
        <mxCell id="Rd3qPR3GxqKm1jp_kwzv-156" style="edgeStyle=orthogonalEdgeStyle;rounded=0;orthogonalLoop=1;jettySize=auto;html=1;exitX=0.5;exitY=0;exitDx=0;exitDy=0;" parent="1" source="E74i4Yss6tRuVbI0QfsG-27" target="E74i4Yss6tRuVbI0QfsG-34" edge="1">
          <mxGeometry relative="1" as="geometry" />
        </mxCell>
        <mxCell id="Rd3qPR3GxqKm1jp_kwzv-157" style="edgeStyle=orthogonalEdgeStyle;rounded=0;orthogonalLoop=1;jettySize=auto;html=1;exitX=0.5;exitY=0;exitDx=0;exitDy=0;" parent="1" source="Rd3qPR3GxqKm1jp_kwzv-153" target="E74i4Yss6tRuVbI0QfsG-34" edge="1">
          <mxGeometry relative="1" as="geometry" />
        </mxCell>
        <mxCell id="Rd3qPR3GxqKm1jp_kwzv-159" style="edgeStyle=orthogonalEdgeStyle;rounded=0;orthogonalLoop=1;jettySize=auto;html=1;entryX=0;entryY=0.5;entryDx=0;entryDy=0;" parent="1" target="Rd3qPR3GxqKm1jp_kwzv-35" edge="1">
          <mxGeometry relative="1" as="geometry">
            <mxPoint x="1522" y="520" as="sourcePoint" />
            <Array as="points">
              <mxPoint x="1522" y="570" />
              <mxPoint x="1680" y="570" />
              <mxPoint x="1680" y="705" />
            </Array>
          </mxGeometry>
        </mxCell>
        <mxCell id="Rd3qPR3GxqKm1jp_kwzv-160" style="edgeStyle=orthogonalEdgeStyle;rounded=0;orthogonalLoop=1;jettySize=auto;html=1;exitX=0.5;exitY=1;exitDx=0;exitDy=0;" parent="1" source="Rd3qPR3GxqKm1jp_kwzv-45" target="Rd3qPR3GxqKm1jp_kwzv-69" edge="1">
          <mxGeometry relative="1" as="geometry" />
        </mxCell>
        <mxCell id="Rd3qPR3GxqKm1jp_kwzv-161" style="edgeStyle=orthogonalEdgeStyle;rounded=0;orthogonalLoop=1;jettySize=auto;html=1;exitX=0.5;exitY=1;exitDx=0;exitDy=0;" parent="1" source="Rd3qPR3GxqKm1jp_kwzv-44" target="Rd3qPR3GxqKm1jp_kwzv-69" edge="1">
          <mxGeometry relative="1" as="geometry" />
        </mxCell>
        <mxCell id="Rd3qPR3GxqKm1jp_kwzv-162" style="edgeStyle=orthogonalEdgeStyle;rounded=0;orthogonalLoop=1;jettySize=auto;html=1;" parent="1" source="Rd3qPR3GxqKm1jp_kwzv-112" target="Rd3qPR3GxqKm1jp_kwzv-88" edge="1">
          <mxGeometry relative="1" as="geometry" />
        </mxCell>
        <mxCell id="Rd3qPR3GxqKm1jp_kwzv-163" style="edgeStyle=orthogonalEdgeStyle;rounded=0;orthogonalLoop=1;jettySize=auto;html=1;exitX=0.5;exitY=1;exitDx=0;exitDy=0;" parent="1" source="Rd3qPR3GxqKm1jp_kwzv-113" target="Rd3qPR3GxqKm1jp_kwzv-88" edge="1">
          <mxGeometry relative="1" as="geometry" />
        </mxCell>
        <mxCell id="Rd3qPR3GxqKm1jp_kwzv-137" value="" style="group;" parent="1" vertex="1" connectable="0">
          <mxGeometry x="940.0000000000001" y="940" width="642.5" height="340" as="geometry" />
        </mxCell>
        <mxCell id="Rd3qPR3GxqKm1jp_kwzv-122" value="" style="group;" parent="Rd3qPR3GxqKm1jp_kwzv-137" vertex="1" connectable="0">
          <mxGeometry width="470" height="340" as="geometry" />
        </mxCell>
        <mxCell id="Rd3qPR3GxqKm1jp_kwzv-83" value="" style="whiteSpace=wrap;html=1;container=1;" parent="Rd3qPR3GxqKm1jp_kwzv-122" vertex="1">
          <mxGeometry x="81.63" y="100" width="390" height="160" as="geometry" />
        </mxCell>
        <mxCell id="Rd3qPR3GxqKm1jp_kwzv-85" value="Save" style="whiteSpace=wrap;html=1;strokeColor=default;fillColor=#B3B3B3;" parent="Rd3qPR3GxqKm1jp_kwzv-83" vertex="1">
          <mxGeometry x="276.62790697674404" y="125.71428571428571" width="36.279069767441854" height="22.857142857142854" as="geometry" />
        </mxCell>
        <mxCell id="Rd3qPR3GxqKm1jp_kwzv-86" value="Cancel" style="whiteSpace=wrap;html=1;strokeColor=default;fillColor=#B3B3B3;" parent="Rd3qPR3GxqKm1jp_kwzv-83" vertex="1">
          <mxGeometry x="326.5116279069766" y="125.71428571428571" width="45.34883720930232" height="22.857142857142854" as="geometry" />
        </mxCell>
        <mxCell id="Rd3qPR3GxqKm1jp_kwzv-87" value="&lt;font style=&quot;font-size: 15px&quot;&gt;Role&lt;/font&gt;" style="text;html=1;strokeColor=none;fillColor=none;align=center;verticalAlign=middle;whiteSpace=wrap;fontSize=15;" parent="Rd3qPR3GxqKm1jp_kwzv-83" vertex="1">
          <mxGeometry x="9.07000000000005" y="79.9985714285715" width="82.56" height="34.285714285714285" as="geometry" />
        </mxCell>
        <mxCell id="Rd3qPR3GxqKm1jp_kwzv-88" value="" style="whiteSpace=wrap;html=1;" parent="Rd3qPR3GxqKm1jp_kwzv-122" vertex="1">
          <mxGeometry x="81.63" y="100" width="389.99999999999983" height="30" as="geometry" />
        </mxCell>
        <mxCell id="Rd3qPR3GxqKm1jp_kwzv-89" value="&lt;span&gt;New / Edit Participant&lt;br&gt;&lt;/span&gt;" style="whiteSpace=wrap;html=1;fillColor=#FFFFFF;strokeColor=none;align=left;" parent="Rd3qPR3GxqKm1jp_kwzv-122" vertex="1">
          <mxGeometry x="90.69976744186044" y="105" width="299.3023255813953" height="20" as="geometry" />
        </mxCell>
        <mxCell id="Rd3qPR3GxqKm1jp_kwzv-90" value="&lt;b&gt;X&lt;/b&gt;" style="whiteSpace=wrap;html=1;fillColor=#FFFFFF;" parent="Rd3qPR3GxqKm1jp_kwzv-122" vertex="1">
          <mxGeometry x="426.28116279069764" y="107.5" width="27.209302325581383" height="15" as="geometry" />
        </mxCell>
        <mxCell id="Rd3qPR3GxqKm1jp_kwzv-91" value="&lt;font style=&quot;font-size: 15px&quot;&gt;Person&lt;/font&gt;" style="text;html=1;strokeColor=none;fillColor=none;align=center;verticalAlign=middle;whiteSpace=wrap;fontSize=15;" parent="Rd3qPR3GxqKm1jp_kwzv-122" vertex="1">
          <mxGeometry x="90.70000000000005" y="140" width="82.56" height="30" as="geometry" />
        </mxCell>
        <mxCell id="Rd3qPR3GxqKm1jp_kwzv-92" value="" style="whiteSpace=wrap;html=1;" parent="Rd3qPR3GxqKm1jp_kwzv-122" vertex="1">
          <mxGeometry x="185.93232558139528" y="140" width="267.55813953488365" height="30" as="geometry" />
        </mxCell>
        <mxCell id="Rd3qPR3GxqKm1jp_kwzv-95" value="" style="whiteSpace=wrap;html=1;" parent="Rd3qPR3GxqKm1jp_kwzv-122" vertex="1">
          <mxGeometry x="185.93232558139528" y="180" width="267.55813953488365" height="30" as="geometry" />
        </mxCell>
        <mxCell id="Rd3qPR3GxqKm1jp_kwzv-96" value="V" style="whiteSpace=wrap;html=1;fontSize=15;" parent="Rd3qPR3GxqKm1jp_kwzv-122" vertex="1">
          <mxGeometry x="409.49" y="181" width="44" height="29" as="geometry" />
        </mxCell>
        <mxCell id="Rd3qPR3GxqKm1jp_kwzv-97" value="V" style="whiteSpace=wrap;html=1;fontSize=15;" parent="Rd3qPR3GxqKm1jp_kwzv-122" vertex="1">
          <mxGeometry x="409.49" y="141" width="44" height="29" as="geometry" />
        </mxCell>
        <mxCell id="Rd3qPR3GxqKm1jp_kwzv-93" value="&lt;font style=&quot;font-size: 14px&quot;&gt;Window will be used for both New and Edit. Either &quot;New&quot; or &quot;Edit&quot; will be shown depending on which action the window is used for. This window is used edit or create a new participant.&amp;nbsp;&lt;/font&gt;" style="shape=callout;whiteSpace=wrap;html=1;perimeter=calloutPerimeter;fontSize=15;" parent="Rd3qPR3GxqKm1jp_kwzv-122" vertex="1">
          <mxGeometry y="-60" width="300" height="160" as="geometry" />
        </mxCell>
        <mxCell id="Rd3qPR3GxqKm1jp_kwzv-134" value="These will be drop downs with lists of options based on the roles and people the user has created." style="shape=callout;whiteSpace=wrap;html=1;perimeter=calloutPerimeter;fontSize=14;rotation=90;size=20;position=0.38;base=9;align=center;horizontal=0;" parent="Rd3qPR3GxqKm1jp_kwzv-137" vertex="1">
          <mxGeometry x="501.25" y="83.75" width="120" height="162.5" as="geometry" />
        </mxCell>
        <mxCell id="Rd3qPR3GxqKm1jp_kwzv-164" style="edgeStyle=orthogonalEdgeStyle;rounded=0;orthogonalLoop=1;jettySize=auto;html=1;entryX=0.998;entryY=0.54;entryDx=0;entryDy=0;entryPerimeter=0;" parent="1" source="E74i4Yss6tRuVbI0QfsG-29" target="E74i4Yss6tRuVbI0QfsG-39" edge="1">
          <mxGeometry relative="1" as="geometry">
            <Array as="points">
              <mxPoint x="1432" y="450" />
              <mxPoint x="1020" y="450" />
              <mxPoint x="1020" y="741" />
            </Array>
          </mxGeometry>
        </mxCell>
        <mxCell id="Rd3qPR3GxqKm1jp_kwzv-165" style="edgeStyle=orthogonalEdgeStyle;rounded=0;orthogonalLoop=1;jettySize=auto;html=1;entryX=0.25;entryY=1;entryDx=0;entryDy=0;" parent="1" source="Rd3qPR3GxqKm1jp_kwzv-26" target="Rd3qPR3GxqKm1jp_kwzv-54" edge="1">
          <mxGeometry relative="1" as="geometry">
            <Array as="points">
              <mxPoint x="639" y="950" />
              <mxPoint x="189" y="950" />
            </Array>
          </mxGeometry>
        </mxCell>
        <mxCell id="Rd3qPR3GxqKm1jp_kwzv-166" style="edgeStyle=orthogonalEdgeStyle;rounded=0;orthogonalLoop=1;jettySize=auto;html=1;" parent="1" source="Rd3qPR3GxqKm1jp_kwzv-25" edge="1">
          <mxGeometry relative="1" as="geometry">
            <mxPoint x="190" y="729.9999999999998" as="targetPoint" />
            <Array as="points">
              <mxPoint x="693" y="950" />
              <mxPoint x="190" y="950" />
            </Array>
          </mxGeometry>
        </mxCell>
        <mxCell id="0qhZA2uygGvCrISFWnPy-1" value="&lt;b style=&quot;font-size: 21px&quot;&gt;Programmer: Andrew Dwyer&lt;br&gt;Date: 4/22/22&lt;br&gt;Program Title: Streamlined Service&lt;br&gt;&lt;/b&gt;" style="text;html=1;strokeColor=none;fillColor=none;align=center;verticalAlign=middle;whiteSpace=wrap;rounded=0;" parent="1" vertex="1">
          <mxGeometry x="70" y="50" width="440" height="130" as="geometry" />
        </mxCell>
      </root>
    </mxGraphModel>
  </diagram>
</mxfile>
